<svg width="32" height="32" viewBox="0 0 32 32" fill="none" xmlns="http://www.w3.org/2000/svg">
<path d="M5 7C4.73478 7 4.48043 7.10536 4.29289 7.29289C4.10536 7.48043 4 7.73478 4 8C4 8.26522 4.10536 8.51957 4.29289 8.70711C4.48043 8.89464 4.73478 9 5 9H5.492C5.70914 9.00038 5.92026 9.07142 6.09346 9.2024C6.26665 9.33338 6.3925 9.51717 6.452 9.726L9.624 20.826C9.80341 21.4524 10.1819 22.0034 10.7022 22.3956C11.2225 22.7878 11.8564 23 12.508 23H21.646C22.2457 23.0001 22.8317 22.8205 23.3283 22.4843C23.8249 22.1481 24.2093 21.6708 24.432 21.114L27.38 13.742C27.5012 13.4387 27.5462 13.1102 27.5112 12.7855C27.4762 12.4607 27.3621 12.1494 27.179 11.8789C26.9959 11.6084 26.7493 11.3869 26.4608 11.2336C26.1723 11.0804 25.8507 11.0002 25.524 11H8.896L8.374 9.176C8.19505 8.54955 7.81703 7.99837 7.29708 7.60579C6.77713 7.21321 6.14351 7.00057 5.492 7H5ZM11.548 20.274L9.468 13H25.522L22.574 20.372C22.4997 20.5574 22.3716 20.7163 22.2062 20.8282C22.0408 20.9401 21.8457 21 21.646 21H12.508C12.2909 20.9996 12.0797 20.9286 11.9065 20.7976C11.7334 20.6666 11.6075 20.4828 11.548 20.274ZM13 31C13.394 31 13.7841 30.9224 14.1481 30.7716C14.512 30.6209 14.8427 30.3999 15.1213 30.1213C15.3999 29.8427 15.6209 29.512 15.7716 29.1481C15.9224 28.7841 16 28.394 16 28C16 27.606 15.9224 27.2159 15.7716 26.8519C15.6209 26.488 15.3999 26.1573 15.1213 25.8787C14.8427 25.6001 14.512 25.3791 14.1481 25.2284C13.7841 25.0776 13.394 25 13 25C12.2044 25 11.4413 25.3161 10.8787 25.8787C10.3161 26.4413 10 27.2044 10 28C10 28.7956 10.3161 29.5587 10.8787 30.1213C11.4413 30.6839 12.2044 31 13 31ZM13 29C12.7348 29 12.4804 28.8946 12.2929 28.7071C12.1054 28.5196 12 28.2652 12 28C12 27.7348 12.1054 27.4804 12.2929 27.2929C12.4804 27.1054 12.7348 27 13 27C13.2652 27 13.5196 27.1054 13.7071 27.2929C13.8946 27.4804 14 27.7348 14 28C14 28.2652 13.8946 28.5196 13.7071 28.7071C13.5196 28.8946 13.2652 29 13 29ZM21 31C21.394 31 21.7841 30.9224 22.1481 30.7716C22.512 30.6209 22.8427 30.3999 23.1213 30.1213C23.3999 29.8427 23.6209 29.512 23.7716 29.1481C23.9224 28.7841 24 28.394 24 28C24 27.606 23.9224 27.2159 23.7716 26.8519C23.6209 26.488 23.3999 26.1573 23.1213 25.8787C22.8427 25.6001 22.512 25.3791 22.1481 25.2284C21.7841 25.0776 21.394 25 21 25C20.2044 25 19.4413 25.3161 18.8787 25.8787C18.3161 26.4413 18 27.2044 18 28C18 28.7956 18.3161 29.5587 18.8787 30.1213C19.4413 30.6839 20.2044 31 21 31ZM21 29C20.7348 29 20.4804 28.8946 20.2929 28.7071C20.1054 28.5196 20 28.2652 20 28C20 27.7348 20.1054 27.4804 20.2929 27.2929C20.4804 27.1054 20.7348 27 21 27C21.2652 27 21.5196 27.1054 21.7071 27.2929C21.8946 27.4804 22 27.7348 22 28C22 28.2652 21.8946 28.5196 21.7071 28.7071C21.5196 28.8946 21.2652 29 21 29Z" fill="#333333"/>
<path d="M31.4707 4.95508V6.51367C31.4707 7.12695 31.3984 7.66016 31.2539 8.11328C31.1133 8.56641 30.9102 8.94141 30.6445 9.23828C30.3828 9.53516 30.0703 9.75586 29.707 9.90039C29.3438 10.0449 28.9434 10.1172 28.5059 10.1172C28.1543 10.1172 27.8262 10.0723 27.5215 9.98242C27.2168 9.88867 26.9414 9.74805 26.6953 9.56055C26.4531 9.36914 26.2441 9.13086 26.0684 8.8457C25.8926 8.56055 25.7578 8.22461 25.6641 7.83789C25.5703 7.44727 25.5234 7.00586 25.5234 6.51367V4.95508C25.5234 4.33789 25.5938 3.80469 25.7344 3.35547C25.8789 2.90234 26.084 2.52734 26.3496 2.23047C26.6152 1.93359 26.9297 1.71289 27.293 1.56836C27.6562 1.42383 28.0566 1.35156 28.4941 1.35156C28.8457 1.35156 29.1719 1.39844 29.4727 1.49219C29.7773 1.58203 30.0527 1.72266 30.2988 1.91406C30.5449 2.10156 30.7539 2.33789 30.9258 2.62305C31.1016 2.9082 31.2363 3.24609 31.3301 3.63672C31.4238 4.02344 31.4707 4.46289 31.4707 4.95508ZM29.4961 6.75391V4.70312C29.4961 4.42969 29.4805 4.19141 29.4492 3.98828C29.4219 3.78516 29.3789 3.61328 29.3203 3.47266C29.2656 3.33203 29.1973 3.21875 29.1152 3.13281C29.0332 3.04297 28.9395 2.97852 28.834 2.93945C28.7324 2.89648 28.6191 2.875 28.4941 2.875C28.3379 2.875 28.1973 2.9082 28.0723 2.97461C27.9512 3.03711 27.8477 3.13867 27.7617 3.2793C27.6758 3.41992 27.6094 3.60742 27.5625 3.8418C27.5195 4.07617 27.498 4.36328 27.498 4.70312V6.75391C27.498 7.03125 27.5117 7.27344 27.5391 7.48047C27.5703 7.68359 27.6133 7.85742 27.668 8.00195C27.7266 8.14258 27.7969 8.25781 27.8789 8.34766C27.9609 8.43359 28.0547 8.49609 28.1602 8.53516C28.2656 8.57422 28.3809 8.59375 28.5059 8.59375C28.6582 8.59375 28.7949 8.5625 28.916 8.5C29.0371 8.4375 29.1406 8.33594 29.2266 8.19531C29.3164 8.05078 29.3828 7.86133 29.4258 7.62695C29.4727 7.38867 29.4961 7.09766 29.4961 6.75391Z" fill="#333333"/>
</svg>
