<svg width="30" height="31" viewBox="0 0 30 31" fill="none" xmlns="http://www.w3.org/2000/svg">
<path d="M14 4.99817V1.99817C14 1.73295 14.1054 1.4786 14.2929 1.29106C14.4804 1.10353 14.7348 0.998169 15 0.998169C15.2652 0.998169 15.5196 1.10353 15.7071 1.29106C15.8946 1.4786 16 1.73295 16 1.99817V4.99817C16 5.26339 15.8946 5.51774 15.7071 5.70528C15.5196 5.89281 15.2652 5.99817 15 5.99817C14.7348 5.99817 14.4804 5.89281 14.2929 5.70528C14.1054 5.51774 14 5.26339 14 4.99817ZM23 15.9982C23 17.5804 22.5308 19.1271 21.6518 20.4427C20.7727 21.7583 19.5233 22.7837 18.0615 23.3892C16.5997 23.9947 14.9911 24.1531 13.4393 23.8445C11.8874 23.5358 10.462 22.7738 9.34315 21.655C8.22433 20.5362 7.4624 19.1107 7.15372 17.5589C6.84504 16.007 7.00346 14.3985 7.60896 12.9367C8.21447 11.4749 9.23985 10.2255 10.5554 9.34641C11.871 8.46736 13.4177 7.99817 15 7.99817C17.121 8.00048 19.1545 8.84408 20.6543 10.3439C22.1541 11.8437 22.9977 13.8771 23 15.9982ZM21 15.9982C21 14.8115 20.6481 13.6514 19.9888 12.6647C19.3295 11.6781 18.3925 10.909 17.2961 10.4549C16.1997 10.0008 14.9933 9.88195 13.8295 10.1135C12.6656 10.345 11.5965 10.9164 10.7574 11.7555C9.91824 12.5946 9.3468 13.6637 9.11529 14.8276C8.88378 15.9915 9.0026 17.1979 9.45672 18.2943C9.91085 19.3906 10.6799 20.3277 11.6666 20.987C12.6533 21.6463 13.8133 21.9982 15 21.9982C16.5908 21.9965 18.116 21.3638 19.2408 20.239C20.3657 19.1141 20.9983 17.589 21 15.9982ZM6.2925 8.70567C6.48014 8.89331 6.73464 8.99872 7 8.99872C7.26536 8.99872 7.51986 8.89331 7.7075 8.70567C7.89514 8.51803 8.00056 8.26353 8.00056 7.99817C8.00056 7.7328 7.89514 7.47831 7.7075 7.29067L5.7075 5.29067C5.51986 5.10303 5.26536 4.99761 5 4.99761C4.73464 4.99761 4.48014 5.10303 4.2925 5.29067C4.10486 5.47831 3.99944 5.7328 3.99944 5.99817C3.99944 6.26353 4.10486 6.51803 4.2925 6.70567L6.2925 8.70567ZM6.2925 23.2907L4.2925 25.2907C4.10486 25.4783 3.99944 25.7328 3.99944 25.9982C3.99944 26.2635 4.10486 26.518 4.2925 26.7057C4.48014 26.8933 4.73464 26.9987 5 26.9987C5.26536 26.9987 5.51986 26.8933 5.7075 26.7057L7.7075 24.7057C7.80041 24.6128 7.87411 24.5025 7.92439 24.3811C7.97468 24.2597 8.00056 24.1296 8.00056 23.9982C8.00056 23.8668 7.97468 23.7367 7.92439 23.6153C7.87411 23.4939 7.80041 23.3836 7.7075 23.2907C7.61459 23.1978 7.50429 23.1241 7.3829 23.0738C7.2615 23.0235 7.13139 22.9976 7 22.9976C6.86861 22.9976 6.7385 23.0235 6.6171 23.0738C6.49571 23.1241 6.38541 23.1978 6.2925 23.2907ZM23 8.99817C23.1314 8.99827 23.2615 8.97249 23.3829 8.92231C23.5042 8.87212 23.6146 8.7985 23.7075 8.70567L25.7075 6.70567C25.8951 6.51803 26.0006 6.26353 26.0006 5.99817C26.0006 5.7328 25.8951 5.47831 25.7075 5.29067C25.5199 5.10303 25.2654 4.99761 25 4.99761C24.7346 4.99761 24.4801 5.10303 24.2925 5.29067L22.2925 7.29067C22.1525 7.43052 22.0571 7.60878 22.0185 7.80286C21.9798 7.99695 21.9996 8.19814 22.0754 8.38096C22.1511 8.56378 22.2794 8.72002 22.444 8.82989C22.6086 8.93976 22.8021 8.99832 23 8.99817ZM23.7075 23.2907C23.5199 23.103 23.2654 22.9976 23 22.9976C22.7346 22.9976 22.4801 23.103 22.2925 23.2907C22.1049 23.4783 21.9994 23.7328 21.9994 23.9982C21.9994 24.2635 22.1049 24.518 22.2925 24.7057L24.2925 26.7057C24.3854 26.7986 24.4957 26.8723 24.6171 26.9226C24.7385 26.9728 24.8686 26.9987 25 26.9987C25.1314 26.9987 25.2615 26.9728 25.3829 26.9226C25.5043 26.8723 25.6146 26.7986 25.7075 26.7057C25.8004 26.6128 25.8741 26.5025 25.9244 26.3811C25.9747 26.2597 26.0006 26.1296 26.0006 25.9982C26.0006 25.8668 25.9747 25.7367 25.9244 25.6153C25.8741 25.4939 25.8004 25.3836 25.7075 25.2907L23.7075 23.2907ZM5 15.9982C5 15.733 4.89464 15.4786 4.70711 15.2911C4.51957 15.1035 4.26522 14.9982 4 14.9982H1C0.734784 14.9982 0.48043 15.1035 0.292893 15.2911C0.105357 15.4786 0 15.733 0 15.9982C0 16.2634 0.105357 16.5177 0.292893 16.7053C0.48043 16.8928 0.734784 16.9982 1 16.9982H4C4.26522 16.9982 4.51957 16.8928 4.70711 16.7053C4.89464 16.5177 5 16.2634 5 15.9982ZM15 25.9982C14.7348 25.9982 14.4804 26.1035 14.2929 26.2911C14.1054 26.4786 14 26.733 14 26.9982V29.9982C14 30.2634 14.1054 30.5177 14.2929 30.7053C14.4804 30.8928 14.7348 30.9982 15 30.9982C15.2652 30.9982 15.5196 30.8928 15.7071 30.7053C15.8946 30.5177 16 30.2634 16 29.9982V26.9982C16 26.733 15.8946 26.4786 15.7071 26.2911C15.5196 26.1035 15.2652 25.9982 15 25.9982ZM29 14.9982H26C25.7348 14.9982 25.4804 15.1035 25.2929 15.2911C25.1054 15.4786 25 15.733 25 15.9982C25 16.2634 25.1054 16.5177 25.2929 16.7053C25.4804 16.8928 25.7348 16.9982 26 16.9982H29C29.2652 16.9982 29.5196 16.8928 29.7071 16.7053C29.8946 16.5177 30 16.2634 30 15.9982C30 15.733 29.8946 15.4786 29.7071 15.2911C29.5196 15.1035 29.2652 14.9982 29 14.9982Z" fill="white"/>
</svg>
