<svg width="24" height="24" viewBox="0 0 24 24" fill="none" xmlns="http://www.w3.org/2000/svg">
<path d="M15.1114 1.81709L15.1089 1.81217C15.0338 1.48905 14.9444 1.16943 14.8408 0.854274C14.681 0.369792 15.0991 -0.129447 15.5812 0.0304078C15.9378 0.148454 16.2883 0.282486 16.6326 0.433733L16.6449 0.439882C19.2296 1.57469 21.3453 3.56387 22.6369 6.07362C23.9285 8.58338 24.3175 11.461 23.7385 14.2235C23.1595 16.986 21.6479 19.4654 19.4572 21.2455C17.2665 23.0257 14.5302 23.9982 11.7073 24C9.31718 24.0005 6.97868 23.3047 4.97766 21.9977C2.97665 20.6908 1.3998 18.8292 0.43988 16.6405L0.434961 16.6282C0.283645 16.2843 0.148628 15.9335 0.0303574 15.5769C-0.129517 15.0949 0.371012 14.6768 0.854323 14.8366C1.17038 14.9399 1.49013 15.0297 1.81357 15.1047L1.81849 15.1072C3.44209 15.485 5.13007 15.4912 6.75641 15.1254C8.38276 14.7596 9.90546 14.0312 11.2108 12.9946C12.5162 11.9579 13.5706 10.6399 14.2952 9.13881C15.0198 7.63772 15.3959 5.99237 15.3955 4.32558C15.3958 3.48137 15.3005 2.63984 15.1114 1.81709ZM17.2414 4.32558C17.2414 11.4563 11.4601 17.2369 4.32851 17.2369C3.80461 17.2369 3.28687 17.2049 2.77896 17.1447C3.6035 18.494 4.7235 19.6387 6.05459 20.4925C7.38568 21.3464 8.89318 21.8871 10.4636 22.074C12.0339 22.2608 13.6262 22.089 15.1206 21.5714C16.6149 21.0539 17.9723 20.204 19.0906 19.0859C20.2088 17.9678 21.0588 16.6105 21.5764 15.1164C22.0941 13.6222 22.2659 12.0301 22.079 10.4599C21.8921 8.8897 21.3513 7.38239 20.4974 6.05145C19.6435 4.72052 18.4987 3.60066 17.1492 2.77622C17.2107 3.28406 17.2414 3.80175 17.2414 4.32558Z" fill="#333333"/>
</svg>
